{"title":"Blueberry, Renegade 2004 DVDrip English Klam","uid":6386987,"size":1787239251,"categoryP":"video","categoryS":"movies","magnet":"?xt=urn:btih:a31b6277b7bb19eff66fabbee9f7d3ac2e59253c&amp;dn=Blueberry%2C+Renegade+2004+DVDrip+English+Klam&amp;tr=udp%3A%2F%2Ftracker.openbittorrent.com%3A80&amp;tr=udp%3A%2F%2Fopen.demonii.com%3A1337&amp;tr=udp%3A%2F%2Ftracker.coppersurfer.tk%3A6969&amp;tr=udp%3A%2F%2Fexodus.desync.com%3A6969","seeders":6,"leechers":0,"uploader":"Klambake","files":6,"time":1305235211,"description":"With: Vincent Cassel, Juliette Lewis and Michael Madsen\n\nU.S Marshall Mike S. Blueberry probeert Wally Blount - de man die zijn vriendin vermoordde - te stoppen een voorraad goud in handen te krijgen die verborgen ligt in Indiaans territorium. Onderweg komt Prosit op zijn pad, een Duitse schurk die een aantal potten goud in de Superstition Mountains denkt te vinden...\n\nAlledged wayward adolescent Louisiana gentleman Michael 'Mike' Blueberry is dumped by his family with a Wild West uncle. The brute's only 'motivation' is a stick. After a nearly fatal encounter in the brothel with Wallace 'Wally' Sebastian Blount, Mike is left for dead in the desert. A Chiricuahua (Apache) medicine man's family finds, nurses and initiates him. After the shaman's death, Mike returns and becomes the town's honest 'deputy' marshal. Gold fever strikes, with staged Indian brutalities to allow rivaling fiends to invade their sacred mountains.\n\nGeneral:\n\nComplete name                    : Blueberry\\Blueberry.avi\nFormat                           : AVI\nFormat/Info                      : Audio Video Interleave\nFile size                        : 1.66 GiB\nDuration                         : 1h 58mn\nOverall bit rate                 : 2 004 Kbps\n\nVideo:\n\nFormat                           : MPEG-4 Visual\nFormat profile                   : Simple@L3\nFormat settings, BVOP            : No\nFormat settings, QPel            : No\nFormat settings, GMC             : No warppoints\nFormat settings, Matrix          : Default (H.263)\nCodec ID                         : XVID\nCodec ID/Hint                    : XviD\nDuration                         : 1h 58mn\nBit rate                         : 1 545 Kbps\nWidth                            : 720 pixels\nHeight                           : 304 pixels\nDisplay aspect ratio             : 2.35:1\nFrame rate                       : 25.000 fps\nColor space                      : YUV\nChroma subsampling               : 4:2:0\nBit depth                        : 8 bits\nScan type                        : Progressive\nBits/(Pixel*Frame)               : 0.282\nStream size                      : 1.28 GiB (77%)\nWriting library                  : XviD 1.1.2 (UTC 2006-11-01)\n\nAudio:\n\nFormat                           : AC-3\nFormat/Info                      : Audio Coding 3\nMode extension                   : CM (complete main)\nCodec ID                         : 2000\nDuration                         : 1h 58mn\nBit rate mode                    : Constant\nBit rate                         : 448 Kbps\nChannel(s)                       : 6 channels\nChannel positions                : Front: L C R, Side: L R, LFE\nSampling rate                    : 48.0 KHz\nBit depth                        : 16 bits\nStream size                      : 381 MiB (22%)\nAlignment                        : Aligned on interleaves\nInterleave, duration             : 32 ms (0.80 video frame)\nInterleave, preload duration     : 32 ms\n\n\n","torrent":{"xt":"urn:btih:a31b6277b7bb19eff66fabbee9f7d3ac2e59253c","amp;dn":"Blueberry%2C+Renegade+2004+DVDrip+English+Klam","amp;tr":["udp%3A%2F%2Ftracker.openbittorrent.com%3A80","udp%3A%2F%2Fopen.demonii.com%3A1337","udp%3A%2F%2Ftracker.coppersurfer.tk%3A6969","udp%3A%2F%2Fexodus.desync.com%3A6969"],"infoHash":"a31b6277b7bb19eff66fabbee9f7d3ac2e59253c","infoHashBuffer":{"type":"Buffer","data":[163,27,98,119,183,187,25,239,246,111,171,190,233,247,211,172,46,89,37,60]},"announce":[],"urlList":[]}}